<svg width="675" height="205" viewBox="0 0 675 205" fill="none" xmlns="http://www.w3.org/2000/svg">
<path d="M0.64093 0H53.3644L107.833 83.0125L160.865 0H213.896V200.729H160.865V88.2489L107.833 171.877L53.3644 85.9387V200.729H0.64093V0Z" fill="#FFCE07"/>
<path d="M295.728 0H348.452V82.1398H361.286L406.771 0H459.494L404.153 100.211L459.494 200.729H406.771L361.337 118.281H348.503V200.729H295.779V0H295.728Z" fill="#FFCE07"/>
<path d="M474.023 0H609.759V36.1415H527.003V82.1911H604.471V118.333H527.003V164.639H609.759V200.78H474.023V0Z" fill="#FFCE07"/>
<path d="M226.012 27.2601C226.012 12.0643 238.846 0 254.555 0C270.265 0 282.791 12.0643 282.791 27.2601C282.791 42.456 269.957 54.5203 254.555 54.5203C239.154 54.5203 226.012 42.0453 226.012 27.2601ZM280.789 204.22H228.065V63.0423H280.789V204.22Z" fill="#FFCE07"/>
<path d="M674.649 176.96C674.649 192.156 661.815 204.22 646.106 204.22C630.396 204.22 617.87 192.156 617.87 176.96C617.87 161.764 630.704 149.7 646.106 149.7C661.507 149.7 674.649 162.175 674.649 176.96ZM619.872 0H672.596V141.178H619.872V0Z" fill="#FFCE07"/>
</svg>
